<svg width="28" height="28" viewBox="0 0 28 28" fill="none" xmlns="http://www.w3.org/2000/svg">
<path d="M9.04164 2.91663C9.04164 2.68456 8.94946 2.462 8.78536 2.29791C8.62127 2.13381 8.39871 2.04163 8.16664 2.04163C7.93458 2.04163 7.71202 2.13381 7.54792 2.29791C7.38383 2.462 7.29164 2.68456 7.29164 2.91663V4.75996C5.61164 4.89413 4.51031 5.22313 3.70064 6.03396C2.88981 6.84363 2.56081 7.94613 2.42548 9.62496H25.5745C25.4391 7.94496 25.1101 6.84363 24.2993 6.03396C23.4896 5.22313 22.3871 4.89413 20.7083 4.75879V2.91663C20.7083 2.68456 20.6161 2.462 20.452 2.29791C20.2879 2.13381 20.0654 2.04163 19.8333 2.04163C19.6012 2.04163 19.3787 2.13381 19.2146 2.29791C19.0505 2.462 18.9583 2.68456 18.9583 2.91663V4.68179C18.1825 4.66663 17.3121 4.66663 16.3333 4.66663H11.6666C10.6878 4.66663 9.81748 4.66663 9.04164 4.68179V2.91663Z" fill="#05CDC2"/>
<path fill-rule="evenodd" clip-rule="evenodd" d="M2.33331 14C2.33331 13.0212 2.33331 12.1508 2.34848 11.375H25.6515C25.6666 12.1508 25.6666 13.0212 25.6666 14V16.3333C25.6666 20.7328 25.6666 22.9332 24.2993 24.2993C22.932 25.6655 20.7328 25.6667 16.3333 25.6667H11.6666C7.26715 25.6667 5.06681 25.6667 3.70065 24.2993C2.33448 22.932 2.33331 20.7328 2.33331 16.3333V14ZM19.8333 16.3333C20.1427 16.3333 20.4395 16.2104 20.6583 15.9916C20.8771 15.7728 21 15.4761 21 15.1667C21 14.8572 20.8771 14.5605 20.6583 14.3417C20.4395 14.1229 20.1427 14 19.8333 14C19.5239 14 19.2271 14.1229 19.0084 14.3417C18.7896 14.5605 18.6666 14.8572 18.6666 15.1667C18.6666 15.4761 18.7896 15.7728 19.0084 15.9916C19.2271 16.2104 19.5239 16.3333 19.8333 16.3333ZM19.8333 21C20.1427 21 20.4395 20.8771 20.6583 20.6583C20.8771 20.4395 21 20.1428 21 19.8333C21 19.5239 20.8771 19.2272 20.6583 19.0084C20.4395 18.7896 20.1427 18.6667 19.8333 18.6667C19.5239 18.6667 19.2271 18.7896 19.0084 19.0084C18.7896 19.2272 18.6666 19.5239 18.6666 19.8333C18.6666 20.1428 18.7896 20.4395 19.0084 20.6583C19.2271 20.8771 19.5239 21 19.8333 21ZM15.1666 15.1667C15.1666 15.4761 15.0437 15.7728 14.8249 15.9916C14.6061 16.2104 14.3094 16.3333 14 16.3333C13.6906 16.3333 13.3938 16.2104 13.175 15.9916C12.9562 15.7728 12.8333 15.4761 12.8333 15.1667C12.8333 14.8572 12.9562 14.5605 13.175 14.3417C13.3938 14.1229 13.6906 14 14 14C14.3094 14 14.6061 14.1229 14.8249 14.3417C15.0437 14.5605 15.1666 14.8572 15.1666 15.1667ZM15.1666 19.8333C15.1666 20.1428 15.0437 20.4395 14.8249 20.6583C14.6061 20.8771 14.3094 21 14 21C13.6906 21 13.3938 20.8771 13.175 20.6583C12.9562 20.4395 12.8333 20.1428 12.8333 19.8333C12.8333 19.5239 12.9562 19.2272 13.175 19.0084C13.3938 18.7896 13.6906 18.6667 14 18.6667C14.3094 18.6667 14.6061 18.7896 14.8249 19.0084C15.0437 19.2272 15.1666 19.5239 15.1666 19.8333ZM8.16665 16.3333C8.47607 16.3333 8.77281 16.2104 8.9916 15.9916C9.2104 15.7728 9.33331 15.4761 9.33331 15.1667C9.33331 14.8572 9.2104 14.5605 8.9916 14.3417C8.77281 14.1229 8.47607 14 8.16665 14C7.85723 14 7.56048 14.1229 7.34169 14.3417C7.1229 14.5605 6.99998 14.8572 6.99998 15.1667C6.99998 15.4761 7.1229 15.7728 7.34169 15.9916C7.56048 16.2104 7.85723 16.3333 8.16665 16.3333ZM8.16665 21C8.47607 21 8.77281 20.8771 8.9916 20.6583C9.2104 20.4395 9.33331 20.1428 9.33331 19.8333C9.33331 19.5239 9.2104 19.2272 8.9916 19.0084C8.77281 18.7896 8.47607 18.6667 8.16665 18.6667C7.85723 18.6667 7.56048 18.7896 7.34169 19.0084C7.1229 19.2272 6.99998 19.5239 6.99998 19.8333C6.99998 20.1428 7.1229 20.4395 7.34169 20.6583C7.56048 20.8771 7.85723 21 8.16665 21Z" fill="#05CDC2"/>
</svg>
