<svg width="28" height="28" viewBox="0 0 28 28" fill="none" xmlns="http://www.w3.org/2000/svg">
<g clip-path="url(#clip0_289_4258)">
<path fill-rule="evenodd" clip-rule="evenodd" d="M15.1667 5.25004C15.1667 5.55946 15.0437 5.85621 14.825 6.075C14.6062 6.29379 14.3094 6.41671 14 6.41671C13.6906 6.41671 13.3938 6.29379 13.175 6.075C12.9562 5.85621 12.8333 5.55946 12.8333 5.25004V1.75004C12.8333 1.44062 12.9562 1.14388 13.175 0.925083C13.3938 0.70629 13.6906 0.583374 14 0.583374C14.3094 0.583374 14.6062 0.70629 14.825 0.925083C15.0437 1.14388 15.1667 1.44062 15.1667 1.75004V5.25004ZM19.8333 6.41671C19.8333 6.72613 19.7104 7.02287 19.4916 7.24166C19.2728 7.46046 18.9761 7.58337 18.6667 7.58337C18.3572 7.58337 18.0605 7.46046 17.8417 7.24166C17.6229 7.02287 17.5 6.72613 17.5 6.41671V3.50004C17.5 3.19062 17.6229 2.89388 17.8417 2.67508C18.0605 2.45629 18.3572 2.33337 18.6667 2.33337C18.9761 2.33337 19.2728 2.45629 19.4916 2.67508C19.7104 2.89388 19.8333 3.19062 19.8333 3.50004V6.41671ZM9.33333 7.58337C9.02391 7.58337 8.72717 7.46046 8.50838 7.24166C8.28958 7.02287 8.16667 6.72613 8.16667 6.41671V3.50004C8.16667 3.19062 8.28958 2.89388 8.50838 2.67508C8.72717 2.45629 9.02391 2.33337 9.33333 2.33337C9.64275 2.33337 9.9395 2.45629 10.1583 2.67508C10.3771 2.89388 10.5 3.19062 10.5 3.50004V6.41671C10.5 6.72613 10.3771 7.02287 10.1583 7.24166C9.9395 7.46046 9.64275 7.58337 9.33333 7.58337ZM14 27.125C9.64658 27.125 6.60917 27.0148 4.71275 26.911C2.85308 26.8095 1.30025 25.4585 1.11125 23.5416C0.984667 22.2583 0.875 20.4593 0.875 18.0834C0.875 15.7075 0.984667 13.9085 1.11125 12.6251C1.30025 10.7077 2.85308 9.35729 4.71275 9.25579C6.60858 9.15196 9.64658 9.04171 14 9.04171C18.3534 9.04171 21.3908 9.15196 23.2873 9.25579C25.1469 9.35729 26.6997 10.7083 26.8888 12.6251C27.0153 13.9085 27.125 15.7075 27.125 18.0834C27.125 20.4593 27.0153 22.2583 26.8888 23.5416C26.6997 25.459 25.1469 26.8095 23.2873 26.911C21.3914 27.0148 18.3534 27.125 14 27.125ZM14 11.9584C14.2321 11.9584 14.4546 12.0506 14.6187 12.2147C14.7828 12.3787 14.875 12.6013 14.875 12.8334V13.4435C15.0632 13.4669 15.247 13.4984 15.4262 13.538C16.058 13.6769 16.6962 13.9242 17.1733 14.308C17.2629 14.38 17.3374 14.469 17.3926 14.5698C17.4477 14.6706 17.4825 14.7813 17.4949 14.8955C17.5073 15.0097 17.4971 15.1253 17.4648 15.2356C17.4326 15.3459 17.3789 15.4487 17.3069 15.5383C17.2349 15.6278 17.146 15.7023 17.0452 15.7575C16.9444 15.8127 16.8337 15.8475 16.7195 15.8599C16.6052 15.8723 16.4897 15.8621 16.3794 15.8298C16.2691 15.7975 16.1662 15.7439 16.0767 15.6719C15.8842 15.5167 15.5301 15.3528 15.0517 15.2478C14.5747 15.1439 14.0841 15.1176 13.5987 15.1696C13.1186 15.2256 12.7575 15.3621 12.537 15.5295C12.3503 15.6725 12.25 15.8428 12.25 16.1146C12.25 16.3235 12.2967 16.439 12.3416 16.5107C12.39 16.5877 12.474 16.6723 12.6297 16.7615C12.9797 16.961 13.4872 17.0783 14.1832 17.2282L14.2491 17.2416C14.8557 17.3717 15.6269 17.5362 16.2388 17.8862C16.5754 18.0787 16.9015 18.3453 17.1407 18.725C17.3827 19.1106 17.5 19.5575 17.5 20.0521C17.5 20.9108 17.1115 21.5805 16.5241 22.0285C16.044 22.3948 15.4554 22.5984 14.875 22.697V23.3334C14.875 23.5654 14.7828 23.788 14.6187 23.9521C14.4546 24.1162 14.2321 24.2084 14 24.2084C13.7679 24.2084 13.5454 24.1162 13.3813 23.9521C13.2172 23.788 13.125 23.5654 13.125 23.3334V22.7232C12.9368 22.6999 12.753 22.6682 12.5737 22.6281C11.942 22.4899 11.3038 22.2431 10.8273 21.8593C10.6463 21.7139 10.5305 21.5027 10.5054 21.272C10.4802 21.0412 10.5477 20.81 10.6931 20.629C10.8384 20.4481 11.0497 20.3323 11.2804 20.3072C11.5111 20.282 11.7424 20.3495 11.9233 20.4949C12.1158 20.65 12.4699 20.814 12.9482 20.919C13.4253 21.0228 13.9159 21.0492 14.4013 20.9971C14.8814 20.9411 15.2425 20.8052 15.463 20.6372C15.6497 20.4943 15.75 20.324 15.75 20.0521C15.75 19.8433 15.7033 19.7278 15.6584 19.656C15.61 19.579 15.526 19.4945 15.3708 19.4052C15.0208 19.2057 14.5133 19.0879 13.8168 18.9385L13.7509 18.9251C13.1442 18.795 12.3731 18.6305 11.7617 18.2805C11.4246 18.088 11.0985 17.8215 10.8599 17.4411C10.6178 17.0561 10.5 16.6087 10.5 16.1146C10.5 15.256 10.8885 14.5863 11.4759 14.1383C11.956 13.772 12.5446 13.5684 13.125 13.4698V12.8334C13.125 12.6013 13.2172 12.3787 13.3813 12.2147C13.5454 12.0506 13.7679 11.9584 14 11.9584ZM20.4167 18.0834C20.4167 17.774 20.5396 17.4772 20.7584 17.2584C20.9772 17.0396 21.2739 16.9167 21.5833 16.9167H22.1667C22.4761 16.9167 22.7728 17.0396 22.9916 17.2584C23.2104 17.4772 23.3333 17.774 23.3333 18.0834C23.3333 18.3928 23.2104 18.6895 22.9916 18.9083C22.7728 19.1271 22.4761 19.25 22.1667 19.25H21.5833C21.2739 19.25 20.9772 19.1271 20.7584 18.9083C20.5396 18.6895 20.4167 18.3928 20.4167 18.0834ZM6.41667 16.9167C6.72609 16.9167 7.02283 17.0396 7.24162 17.2584C7.46042 17.4772 7.58333 17.774 7.58333 18.0834C7.58333 18.3928 7.46042 18.6895 7.24162 18.9083C7.02283 19.1271 6.72609 19.25 6.41667 19.25H5.83333C5.52391 19.25 5.22717 19.1271 5.00838 18.9083C4.78958 18.6895 4.66667 18.3928 4.66667 18.0834C4.66667 17.774 4.78958 17.4772 5.00838 17.2584C5.22717 17.0396 5.52391 16.9167 5.83333 16.9167H6.41667Z" fill="#FFDC89"/>
</g>
<defs>
<clipPath id="clip0_289_4258">
<rect width="28" height="28" fill="white"/>
</clipPath>
</defs>
</svg>
