<svg width="28" height="28" viewBox="0 0 28 28" fill="none" xmlns="http://www.w3.org/2000/svg">
<path d="M14 11.6667C15.2377 11.6667 16.4247 11.175 17.2999 10.2999C18.175 9.4247 18.6667 8.23772 18.6667 7.00004C18.6667 5.76236 18.175 4.57538 17.2999 3.70021C16.4247 2.82504 15.2377 2.33337 14 2.33337C12.7624 2.33337 11.5754 2.82504 10.7002 3.70021C9.82504 4.57538 9.33337 5.76236 9.33337 7.00004C9.33337 8.23772 9.82504 9.4247 10.7002 10.2999C11.5754 11.175 12.7624 11.6667 14 11.6667ZM6.41671 15.1667C7.19026 15.1667 7.93212 14.8594 8.4791 14.3124C9.02608 13.7655 9.33337 13.0236 9.33337 12.25C9.33337 11.4765 9.02608 10.7346 8.4791 10.1876C7.93212 9.64066 7.19026 9.33337 6.41671 9.33337C5.64316 9.33337 4.90129 9.64066 4.35431 10.1876C3.80733 10.7346 3.50004 11.4765 3.50004 12.25C3.50004 13.0236 3.80733 13.7655 4.35431 14.3124C4.90129 14.8594 5.64316 15.1667 6.41671 15.1667ZM24.5 12.25C24.5 13.0236 24.1927 13.7655 23.6458 14.3124C23.0988 14.8594 22.3569 15.1667 21.5834 15.1667C20.8098 15.1667 20.068 14.8594 19.521 14.3124C18.974 13.7655 18.6667 13.0236 18.6667 12.25C18.6667 11.4765 18.974 10.7346 19.521 10.1876C20.068 9.64066 20.8098 9.33337 21.5834 9.33337C22.3569 9.33337 23.0988 9.64066 23.6458 10.1876C24.1927 10.7346 24.5 11.4765 24.5 12.25ZM14 12.8334C15.5471 12.8334 17.0309 13.448 18.1248 14.5419C19.2188 15.6359 19.8334 17.1196 19.8334 18.6667V25.6667H8.16671V18.6667C8.16671 17.1196 8.78129 15.6359 9.87525 14.5419C10.9692 13.448 12.4529 12.8334 14 12.8334ZM5.83337 18.6667C5.83337 17.8582 5.95004 17.0777 6.16937 16.3404L5.97104 16.3567C4.97107 16.4665 4.04681 16.9416 3.37551 17.6908C2.70421 18.44 2.33311 19.4107 2.33337 20.4167V25.6667H5.83337V18.6667ZM25.6667 25.6667V20.4167C25.6668 19.3765 25.2699 18.3754 24.5571 17.6178C23.8442 16.8603 22.869 16.4034 21.8307 16.3404C22.0489 17.0777 22.1667 17.8582 22.1667 18.6667V25.6667H25.6667Z" fill="#EADDCD"/>
</svg>
