<svg width="28" height="28" viewBox="0 0 28 28" fill="none" xmlns="http://www.w3.org/2000/svg">
<path d="M14 14.875C18.599 14.875 23.3181 17.8652 23.6238 23.8723C23.6355 24.1039 23.5549 24.3307 23.3996 24.5028C23.2443 24.675 23.027 24.7784 22.7955 24.7905C20.3688 24.9142 9.13029 24.99 5.20562 24.7905C4.97387 24.7787 4.75629 24.6754 4.60073 24.5032C4.44517 24.331 4.36438 24.1041 4.37612 23.8723C4.68179 17.8663 9.40096 14.875 14 14.875ZM14 4.375C12.8396 4.375 11.7268 4.83594 10.9064 5.65641C10.0859 6.47688 9.62496 7.58968 9.62496 8.75C9.62496 9.91032 10.0859 11.0231 10.9064 11.8436C11.7268 12.6641 12.8396 13.125 14 13.125C15.1603 13.125 16.2731 12.6641 17.0935 11.8436C17.914 11.0231 18.375 9.91032 18.375 8.75C18.375 7.58968 17.914 6.47688 17.0935 5.65641C16.2731 4.83594 15.1603 4.375 14 4.375Z" fill="#C7E7A4"/>
</svg>
